<svg width="91" height="124" viewBox="0 0 91 124" fill="none" xmlns="http://www.w3.org/2000/svg">
<g id="challenge-target-icon 1" clip-path="url(#clip0_9633_4954)">
<g id="Group">
<path id="Vector" d="M70.08 91.5866H88.75C89.74 91.5866 90.56 92.3966 90.56 93.3966V121.547C90.56 122.537 89.75 123.357 88.75 123.357H70.08C69.09 123.357 68.27 122.547 68.27 121.547V93.3966C68.27 92.4066 69.09 91.5866 70.08 91.5866ZM15.3 8.84656C37.31 -6.37344 38.96 23.7466 60.57 4.94656V35.6366C39.96 54.1766 35.51 24.2166 15.3 39.4466V8.84656ZM9.87 0.476562C12.19 0.476562 14.07 2.35656 14.07 4.67656C14.07 6.21656 13.24 7.56656 12.01 8.29656H12.21V45.5066H20.49C21.48 45.5066 22.3 46.3166 22.3 47.3166V121.557C22.3 122.547 21.49 123.367 20.49 123.367H1.81C0.82 123.367 0 122.557 0 121.557V47.3166C0 46.3266 0.81 45.5066 1.81 45.5066H7.54V8.29656H7.74C6.5 7.56656 5.67 6.21656 5.67 4.67656C5.67 2.35656 7.55 0.476562 9.87 0.476562ZM35.94 67.1866H54.61C55.6 67.1866 56.42 67.9966 56.42 68.9966V121.557C56.42 122.547 55.61 123.367 54.61 123.367H35.94C34.95 123.367 34.13 122.557 34.13 121.557V68.9966C34.14 67.9966 34.95 67.1866 35.94 67.1866Z" fill="#002C8B"/>
</g>
</g>
<defs>
<clipPath id="clip0_9633_4954">
<rect width="90.56" height="122.88" fill="white" transform="translate(0 0.476562)"/>
</clipPath>
</defs>
</svg>
