<svg width="108" height="74" viewBox="0 0 108 74" fill="none" xmlns="http://www.w3.org/2000/svg">
<g id="eye-icon 1" clip-path="url(#clip0_9633_4951)">
<g id="Group">
<path id="Vector" d="M84.1377 8.92407C93.3926 15.1204 101.364 24.1047 107.411 35.0205L108 36.0867L107.411 37.1442C101.364 48.06 93.3838 57.0443 84.1377 63.2407C75.1113 69.2885 64.8633 72.6969 54 72.6969C43.1367 72.6969 32.8887 69.2885 23.8711 63.2494C14.6074 57.0443 6.63574 48.06 0.588867 37.1442L0 36.0867L0.588867 35.0205C6.63574 24.1047 14.6074 15.1204 23.8623 8.92407C32.8887 2.88501 43.1367 -0.523438 54 -0.523438C64.8633 -0.523438 75.1025 2.88501 84.1377 8.92407ZM53.4287 18.8522L57.0147 19.1931C55.7402 21.0983 54.9844 23.4056 54.9844 25.8964C54.9844 32.4336 60.1348 37.7298 66.498 37.7298C68.5371 37.7298 70.4531 37.1879 72.1143 36.2266C72.1406 36.6373 72.1582 37.0481 72.1582 37.4676C72.1582 47.7541 63.7734 56.0917 53.4287 56.0917C43.084 56.0917 34.6992 47.7541 34.6992 37.4676C34.6992 27.1898 43.084 18.8522 53.4287 18.8522ZM95.8008 36.0867C90.9668 27.6443 84.7178 20.705 77.5283 15.8895C70.4531 11.1527 62.4551 8.47835 54 8.47835C45.5537 8.47835 37.5557 11.1527 30.4805 15.8895C23.291 20.705 17.042 27.6443 12.1992 36.0867C17.0332 44.5292 23.291 51.4684 30.4805 56.2752C37.5557 61.0121 45.5537 63.6864 54 63.6864C62.4551 63.6864 70.4443 61.0121 77.5283 56.2752C84.7178 51.4684 90.9668 44.5292 95.8008 36.0867Z" fill="#002C8B"/>
</g>
</g>
<defs>
<clipPath id="clip0_9633_4951">
<rect width="108" height="73.2203" fill="white" transform="translate(0 0.257812)"/>
</clipPath>
</defs>
</svg>
