<svg width="242" height="43" viewBox="0 0 242 43" fill="none" xmlns="http://www.w3.org/2000/svg">
<g clip-path="url(#clip0_9626_16605)">
<path d="M89.3197 26.2625H75.5284V19.7907H89.3197V15.6167H75.5284V9.16632H89.3197V4.99228H71.3271V9.16632V15.6167V19.7907V26.2625V30.4362H89.3197V26.2625ZM94.5819 11.8222H90.3807V19.9383V30.4362H94.5819V26.2625V19.9383C94.5819 17.7671 96.3644 15.9963 98.5284 15.9963C100.714 15.9963 102.496 17.7672 102.496 19.9383V26.2625V30.4362H106.697V26.2625V19.9383C106.697 17.7671 108.501 15.9963 110.665 15.9963C112.829 15.9963 114.611 17.7672 114.611 19.9383V26.2625V30.4362H118.834V19.9383C118.834 15.4694 115.142 11.8222 110.665 11.8222C108.267 11.8222 106.082 12.8553 104.596 14.5207C103.09 12.8553 100.947 11.8222 98.5282 11.8222C97.1066 11.8222 95.7484 12.1807 94.5817 12.8553V11.8222H94.5819ZM124.096 28.8763C125.602 29.8673 127.363 30.4363 129.273 30.4363C134.429 30.4363 138.63 26.2626 138.63 21.1187C138.63 15.9963 134.429 11.8222 129.273 11.8222C127.363 11.8222 125.602 12.3913 124.096 13.3611V4.99219H119.894V21.1187V30.4363H124.096V28.8763ZM129.273 26.2625C126.408 26.2625 124.096 23.9647 124.096 21.1187C124.096 18.294 126.408 15.9963 129.273 15.9963C132.116 15.9963 134.429 18.2941 134.429 21.1187C134.429 23.9648 132.116 26.2625 129.273 26.2625ZM149.048 15.9963C146.205 15.9963 143.892 18.2941 143.892 21.1187V28.8763V30.4363H139.691V21.1187V11.8222H143.892V13.3611C145.356 12.3913 147.138 11.8222 149.048 11.8222V15.9962V15.9963ZM150.109 11.8223H154.31V30.4363H150.109V11.8223ZM152.209 4.99228C153.376 4.99228 154.31 5.91991 154.31 7.07916C154.31 8.21772 153.376 9.16642 152.209 9.16642C151.064 9.16642 150.109 8.21772 150.109 7.07916C150.109 5.91991 151.064 4.99228 152.209 4.99228ZM169.884 13.3612C168.42 12.3914 166.637 11.8223 164.749 11.8223C159.551 11.8223 155.371 15.9963 155.371 21.1188C155.371 26.2626 159.551 30.4364 164.749 30.4364C166.637 30.4364 168.42 29.8674 169.884 28.8764C172.43 27.211 174.085 24.3653 174.085 21.1188C174.085 17.8934 172.43 15.0266 169.884 13.3612ZM159.572 21.1188C159.572 18.2941 161.885 15.9964 164.749 15.9964C167.571 15.9964 169.884 18.2942 169.884 21.1188C169.884 23.9649 167.571 26.2626 164.749 26.2626C161.884 26.2626 159.572 23.9648 159.572 21.1188ZM179.347 26.2626V19.7908H191.398V15.6168H179.347V9.16642H193.138V4.99238H175.146V9.16642V15.6168V19.7908V26.2626V30.4363H179.347V26.2626ZM202.92 26.2416C200.077 26.2416 197.764 23.9438 197.764 21.1188C197.764 18.2941 200.077 15.9964 202.92 15.9964C205.784 15.9964 208.097 18.2942 208.097 21.1188C208.097 23.9439 205.784 26.2416 202.92 26.2416ZM205.508 6.10978L202.347 9.67217H200.374L201.562 6.10978H205.508H205.508ZM197.764 28.8764C199.249 29.8462 201.01 30.4153 202.92 30.4153C204.829 30.4153 206.612 29.8462 208.097 28.8764V30.4153H212.298V21.1188V11.8223H208.097V13.3612C206.612 12.3703 204.829 11.8223 202.92 11.8223C201.01 11.8223 199.249 12.3703 197.764 13.3612C195.239 15.0056 193.563 17.8723 193.563 21.1188C193.563 24.3653 195.239 27.211 197.764 28.8764ZM222.716 26.2626C219.873 26.2626 217.56 23.9648 217.56 21.1188C217.56 18.2941 219.873 15.9964 222.716 15.9964C224.52 15.9964 226.111 16.924 227.044 18.3153L230.545 15.9964C228.848 13.4877 225.983 11.8224 222.716 11.8224C220.806 11.8224 219.024 12.3915 217.56 13.3613C215.014 15.0267 213.359 17.8935 213.359 21.1189C213.359 24.3654 215.014 27.2111 217.56 28.8765C219.024 29.8674 220.806 30.4365 222.716 30.4365C225.983 30.4365 228.848 28.7503 230.545 26.2628L227.044 23.9229C226.111 25.3352 224.519 26.2628 222.716 26.2628V26.2626ZM231.606 11.8223H235.807V30.4363H231.606V11.8223ZM233.707 4.99228C234.874 4.99228 235.808 5.91991 235.808 7.07916C235.808 8.21772 234.874 9.16642 233.707 9.16642C232.561 9.16642 231.606 8.21772 231.606 7.07916C231.606 5.91991 232.561 4.99228 233.707 4.99228ZM236.868 4.99228H241.069V30.4363H236.868V4.99228Z" fill="#FEFEFE"/>
<path fill-rule="evenodd" clip-rule="evenodd" d="M22.2794 0.0117188C34.1085 0.0117188 43.6971 9.53871 43.6971 21.2906C43.6971 33.0429 34.1085 42.5699 22.2794 42.5699C19.9602 42.5699 17.7277 42.2021 15.6356 41.5243C17.0343 41.8192 18.4847 41.975 19.9716 41.975C31.47 41.975 40.7907 32.7144 40.7907 21.2906C40.7907 9.86729 31.47 0.606627 19.9716 0.606627C18.4849 0.606627 17.035 0.762454 15.6367 1.05662C17.7287 0.379516 19.9608 0.0117188 22.2794 0.0117188ZM31.0767 28.5806C31.273 28.8396 31.5823 28.9783 31.8954 28.9673C31.9526 29.0718 32.0152 29.1978 32.0765 29.3402C32.1779 29.5804 32.275 29.8732 32.3376 30.1959C32.4009 30.5204 32.4328 30.8768 32.4151 31.2371C32.4117 31.2821 32.4086 31.3271 32.4055 31.3719C32.4034 31.3947 32.4027 31.417 32.3999 31.4397L32.3913 31.5071C32.3857 31.5522 32.3798 31.5972 32.3743 31.642C32.3664 31.687 32.3581 31.7325 32.3501 31.7772C32.3462 31.7978 32.3424 31.8202 32.3383 31.843C32.3335 31.8653 32.3286 31.888 32.3238 31.9104C32.3134 31.9537 32.303 31.9988 32.2915 32.0436C32.2694 32.1336 32.2451 32.2238 32.2213 32.3157C32.1735 32.496 32.1278 32.6776 32.099 32.8541C32.0689 33.0303 32.056 33.2013 32.0637 33.3568C32.0647 33.3757 32.0654 33.3943 32.0661 33.415L32.0675 33.4432L32.0706 33.4697C32.0748 33.5068 32.0789 33.5405 32.0827 33.5763C32.0841 33.5932 32.0873 33.61 32.0907 33.6272L32.0994 33.6757L32.108 33.7229L32.118 33.7676C32.1253 33.7975 32.1326 33.8257 32.1395 33.8539L32.1499 33.8935L32.1614 33.9311C32.1693 33.9572 32.1769 33.9799 32.1842 34.0023C32.1911 34.0267 32.198 34.0473 32.206 34.068C32.2213 34.1072 32.2351 34.143 32.2468 34.175C32.259 34.2049 32.2715 34.229 32.2802 34.2517C32.2984 34.293 32.3086 34.3157 32.3086 34.3157L32.3161 34.3305C32.3213 34.3418 32.3289 34.3566 32.3393 34.3777C32.3494 34.3983 32.3618 34.4223 32.3767 34.4523C32.3919 34.4805 32.4107 34.5142 32.4318 34.55C32.4727 34.6216 32.4838 34.6532 32.5055 34.6932C29.5225 36.985 26.4118 38.3239 23.2958 38.7017L23.231 38.6226C23.0301 38.3804 22.8131 38.1519 22.6184 37.9362C22.5204 37.8292 22.4283 37.7242 22.3444 37.621C22.2617 37.5199 22.1869 37.4218 22.1225 37.3303C21.9934 37.1445 21.9057 36.9797 21.8503 36.8648C21.8368 36.8348 21.8236 36.8084 21.8143 36.786C21.8049 36.7636 21.7966 36.7426 21.7904 36.7279L21.7755 36.6924L21.7706 36.6793C21.7706 36.6793 21.7648 36.6624 21.753 36.6302C21.7478 36.614 21.7398 36.5929 21.7326 36.5703C21.7253 36.5458 21.7173 36.52 21.7084 36.4897C21.675 36.3676 21.6349 36.1894 21.6432 35.9736C21.6456 35.8646 21.6623 35.749 21.6927 35.6214C21.7225 35.4937 21.7665 35.3567 21.8157 35.2102C21.8395 35.1352 21.8656 35.0601 21.8908 34.981C21.9032 34.9418 21.9161 34.9029 21.9275 34.8613C21.9337 34.8406 21.9396 34.82 21.9452 34.8014C21.9504 34.7808 21.9556 34.7601 21.9611 34.7375C21.9715 34.6962 21.9819 34.6549 21.9923 34.6135C22.0003 34.5705 22.0089 34.5296 22.0168 34.488L22.0293 34.4243C22.0335 34.4033 22.0356 34.383 22.0387 34.3606C22.0446 34.3191 22.0504 34.276 22.0571 34.2344C22.0976 33.8972 22.0909 33.5649 22.055 33.2593C22.0182 32.9538 21.949 32.6758 21.8707 32.4436C21.8191 32.2932 21.7648 32.1615 21.7153 32.053C21.8759 31.8336 21.9195 31.5425 21.816 31.2817C21.6495 31.4919 21.4399 31.6722 21.1906 31.8108C20.9416 31.9499 20.6763 32.0325 20.4093 32.0624C20.5721 32.2781 20.8287 32.3926 21.0887 32.383C21.1363 32.4711 21.1885 32.5743 21.2394 32.6944C21.3239 32.8936 21.4039 33.1355 21.4562 33.4052C21.5088 33.674 21.5355 33.9702 21.5207 34.2681C21.5178 34.3056 21.5147 34.3434 21.5126 34.381C21.5109 34.3999 21.5102 34.4185 21.5082 34.4371L21.5009 34.4935C21.496 34.531 21.4915 34.5685 21.4863 34.606C21.4801 34.6415 21.4731 34.6796 21.4662 34.7164C21.4631 34.7357 21.46 34.7526 21.4566 34.7711C21.4527 34.79 21.4486 34.8087 21.4447 34.8276C21.4361 34.8651 21.4274 34.9005 21.4178 34.9383C21.3994 35.013 21.3797 35.0883 21.3596 35.1634C21.3201 35.3134 21.282 35.4654 21.2578 35.6117C21.2325 35.7583 21.2221 35.9007 21.229 36.0284L21.2307 36.0769L21.2318 36.0996L21.2346 36.122C21.2384 36.1519 21.2415 36.1821 21.2443 36.21L21.2512 36.2537L21.2585 36.2925L21.2654 36.3321L21.2741 36.3697C21.2796 36.3941 21.2854 36.4182 21.2917 36.4412L21.3 36.4746L21.31 36.5066C21.3163 36.5273 21.3229 36.5458 21.3288 36.5647C21.3347 36.5833 21.3401 36.6022 21.3472 36.6194C21.3599 36.6514 21.371 36.6807 21.3808 36.7076C21.3908 36.7337 21.4008 36.7543 21.4084 36.7708C21.4236 36.807 21.4316 36.8235 21.4316 36.8235L21.4382 36.8362L21.4579 36.8761C21.4662 36.893 21.4766 36.9136 21.4888 36.938C21.5012 36.9625 21.5168 36.9886 21.5338 37.0206C21.6038 37.1424 21.7111 37.3096 21.8621 37.4951C21.9372 37.5886 22.0231 37.6867 22.1176 37.7841C22.2115 37.8839 22.3139 37.9847 22.421 38.0875C22.634 38.292 22.8663 38.5028 23.0804 38.7268C17.959 39.2749 12.8316 37.227 8.2443 32.5424L8.46872 35.8443C13.1038 39.2527 18.5553 40.7513 23.7878 39.7422C28.7291 38.7564 32.6257 35.853 35.6212 31.9C34.7104 32.839 33.7819 33.683 32.8407 34.4313C32.8355 34.4155 32.8275 34.3949 32.8119 34.3625C32.796 34.3267 32.7808 34.2968 32.769 34.2686C32.7576 34.2404 32.7478 34.218 32.7399 34.1991C32.7319 34.1784 32.7261 34.1653 32.7219 34.1543L32.7163 34.1392C32.7163 34.1392 32.7088 34.1186 32.6949 34.0811C32.6883 34.0604 32.6789 34.0377 32.6703 34.0099C32.6616 33.9799 32.652 33.9479 32.6413 33.9101C32.6017 33.7639 32.553 33.5502 32.563 33.2893C32.5657 33.1596 32.5858 33.0192 32.6221 32.8655C32.6582 32.7113 32.7112 32.5466 32.7704 32.3701C32.7998 32.2819 32.8307 32.1901 32.8611 32.0961C32.8764 32.0494 32.8909 32.0005 32.9051 31.952C32.9124 31.9272 32.9196 31.9031 32.9266 31.8766C32.9328 31.8526 32.9394 31.8278 32.9453 31.8034C32.9577 31.7528 32.9706 31.7022 32.9833 31.6517C32.9931 31.6011 33.0031 31.5522 33.0132 31.5016L33.0277 31.4246C33.0326 31.3984 33.0353 31.374 33.0391 31.3478C33.0464 31.2972 33.0537 31.2466 33.0606 31.1958C33.1098 30.7904 33.1025 30.3893 33.0581 30.0215C33.0145 29.652 32.9311 29.3178 32.8372 29.0402C32.7749 28.8582 32.7091 28.6989 32.6492 28.5675C32.8431 28.3049 32.895 27.954 32.771 27.6409C32.5702 27.8921 32.3177 28.1095 32.0175 28.2767C31.7176 28.4436 31.398 28.543 31.0766 28.5806H31.0767ZM14.7689 5.5662C21.6429 2.3795 29.0768 4.21021 35.6212 10.9586C28.3243 1.32868 17.7768 0.843235 9.48852 6.30518L14.7689 5.5662ZM8.07146 9.51999L9.44489 10.3767C9.50935 10.417 9.52875 10.502 9.48824 10.566V10.5663C9.44763 10.6306 9.36216 10.6499 9.2977 10.6097L7.92427 9.75266C7.85991 9.71241 7.84013 9.62777 7.88064 9.56335H7.88102C7.92153 9.49902 8.00672 9.47974 8.07146 9.51999ZM5.28996 10.9276L7.93781 12.4154C8.06209 12.4851 8.1061 12.6427 8.03578 12.7662L8.03549 12.7666C7.96516 12.8902 7.80652 12.9338 7.68262 12.8639L5.03477 11.3763C4.9104 11.3064 4.86648 11.1488 4.93671 11.0257L4.93709 11.0249C5.00742 10.9017 5.16568 10.8577 5.28996 10.9276ZM3.88984 13.0408L6.53769 14.5286C6.66206 14.5984 6.70598 14.756 6.63575 14.8792L6.63537 14.8798C6.56504 15.0034 6.40678 15.047 6.2825 14.9772L3.63465 13.4895C3.51037 13.4196 3.46635 13.262 3.53668 13.1385L3.53697 13.1382C3.60729 13.0147 3.76593 12.971 3.88984 13.0408ZM3.57719 15.7104L4.95062 16.5671C5.01499 16.6074 5.03477 16.6924 4.99426 16.7563L4.99388 16.7567C4.95337 16.8206 4.86818 16.8403 4.80344 16.8L3.43001 15.943C3.36555 15.9027 3.34614 15.8181 3.38666 15.7537V15.7534C3.42726 15.6894 3.51274 15.6701 3.57719 15.7104ZM4.89175 22.489L6.88885 23.0798C6.98266 23.1073 7.03642 23.2057 7.00831 23.2989C6.98067 23.3926 6.88128 23.4459 6.78738 23.4179L4.79028 22.8276C4.69638 22.7997 4.64271 22.7013 4.67083 22.6077C4.69884 22.5145 4.79785 22.4612 4.89175 22.489ZM3.59896 24.5427L6.90163 25.5191C7.05649 25.5649 7.14546 25.728 7.09908 25.8821V25.8825C7.05298 26.0366 6.88885 26.1248 6.73409 26.079L3.43133 25.1021C3.2762 25.0564 3.1876 24.8933 3.2336 24.7391C3.28008 24.585 3.44383 24.497 3.59896 24.5427ZM3.1928 26.8363L6.49547 27.813C6.65023 27.8588 6.7392 28.0216 6.6932 28.1757L6.69282 28.176C6.64682 28.3301 6.4826 28.4182 6.32784 28.3724L3.02517 27.396C2.87041 27.3499 2.78134 27.1871 2.82744 27.033L2.82772 27.0327C2.87382 26.8786 3.03795 26.7905 3.1928 26.8363ZM3.78013 29.5612L5.77724 30.1516C5.87104 30.1795 5.92471 30.2779 5.89707 30.3711C5.86896 30.4644 5.76995 30.5177 5.67577 30.4902L3.67895 29.8994C3.58477 29.8716 3.5311 29.7732 3.55912 29.6799C3.58723 29.5863 3.68624 29.5333 3.78013 29.5612ZM4.30546 32.8057C2.86937 31.7288 0.90445 29.2262 0.380162 27.5083C-1.25092 21.4264 4.49657 18.7094 7.78409 15.0245C9.43656 13.1721 9.97476 11.1109 10.8281 8.86349C11.3173 10.3052 10.7626 13.157 10.0866 14.5704C7.49104 19.9958 -0.09254 21.9848 2.3129 28.6891C2.81542 30.0895 3.59007 31.5018 4.30556 32.8057H4.30546ZM7.4156 20.1936C9.15922 22.1365 9.58412 25.2846 8.97597 27.7446C8.15636 31.0628 6.10796 34.8587 9.48994 37.5734C9.86156 37.8717 13.5759 40.0104 10.4239 38.8598C4.88834 36.8399 5.04386 33.4216 6.97035 28.5602C8.22537 25.3927 7.8105 23.2931 7.16013 20.0736L7.21513 20.0317L7.4157 20.1937L7.4156 20.1936ZM14.9188 6.32747C8.75817 9.94854 1.2311 7.86712 2.54357 17.1401C2.55739 17.2378 2.53979 17.2612 2.51309 17.3551C1.12651 15.3028 0.790203 12.3446 2.2953 10.2559C5.34476 6.02399 14.9247 6.32399 14.9188 6.32747Z" fill="#FEFEFE"/>
<path d="M19.1642 7.01045C17.2433 7.90328 17.5792 12.6439 18.4792 14.5518C19.3791 16.4614 21.6658 17.2831 23.5869 16.3903C25.508 15.4954 26.3357 13.2235 25.4359 11.3159C24.536 9.40588 21.0853 6.11564 19.1642 7.01054V7.01045Z" fill="#FEFEFE"/>
<path d="M22.251 16.996C22.5188 17.4067 22.97 17.6487 23.4436 17.6655C23.5183 17.8308 23.5991 18.0259 23.6756 18.2489C23.803 18.6205 23.9173 19.0707 23.9768 19.5661C24.037 20.0613 24.0468 20.6034 23.9804 21.1436C23.9704 21.2111 23.9605 21.2807 23.9508 21.3481C23.9457 21.382 23.9421 21.4157 23.9353 21.4495L23.9152 21.549C23.9018 21.6165 23.8882 21.6839 23.8748 21.7516C23.8575 21.817 23.8406 21.8848 23.8236 21.9503C23.8153 21.9843 23.8069 22.016 23.7984 22.0498C23.7885 22.0817 23.7791 22.1155 23.769 22.1493C23.7492 22.215 23.7286 22.2805 23.7065 22.348C23.6632 22.4794 23.6166 22.6144 23.5708 22.7477C23.4794 23.016 23.3901 23.2841 23.3276 23.5488C23.2632 23.8114 23.2256 24.0682 23.2202 24.303C23.2191 24.3308 23.2186 24.361 23.2177 24.3892L23.2164 24.4321L23.2182 24.4736C23.2202 24.528 23.2228 24.5825 23.2248 24.635C23.2253 24.661 23.2282 24.6874 23.231 24.7117C23.2339 24.738 23.2367 24.7623 23.2393 24.7869C23.2421 24.8111 23.2448 24.8355 23.2472 24.8582C23.2498 24.8825 23.2526 24.9051 23.257 24.9275C23.265 24.9725 23.2727 25.0175 23.2801 25.0587C23.284 25.0795 23.2876 25.1002 23.2912 25.1209C23.2954 25.1414 23.3005 25.1603 23.3051 25.179C23.3141 25.2183 23.3229 25.2539 23.3314 25.2897C23.3396 25.3252 23.3474 25.3572 23.3574 25.3889C23.3762 25.4511 23.393 25.5053 23.4074 25.5541C23.4222 25.601 23.438 25.6404 23.4493 25.6741C23.4725 25.738 23.4848 25.7736 23.4848 25.7736L23.4946 25.7979C23.5014 25.8147 23.5113 25.8394 23.5247 25.8712C23.5376 25.9029 23.5538 25.9406 23.5731 25.9874C23.5927 26.0324 23.6179 26.0833 23.6447 26.1413C23.7548 26.372 23.9283 26.691 24.1783 27.0472C24.3021 27.2255 24.4461 27.4132 24.6039 27.6063C24.7617 27.7976 24.9346 27.9948 25.1156 28.1956C25.4775 28.5969 25.8732 29.0115 26.2341 29.4449C26.5945 29.8801 26.9221 30.3343 27.1456 30.8013C27.3732 31.2665 27.5086 31.7356 27.557 32.1501C27.582 32.3583 27.5841 32.5517 27.5722 32.7261C27.5606 32.8987 27.5317 33.0507 27.5009 33.1744C27.4703 33.3 27.4332 33.3975 27.4087 33.4632C27.3812 33.529 27.3666 33.5627 27.3666 33.5627C27.3666 33.5627 27.3835 33.529 27.4157 33.465C27.4445 33.3995 27.4887 33.3039 27.5284 33.178C27.5684 33.0525 27.6085 32.9006 27.6327 32.7241C27.6574 32.5478 27.6695 32.3471 27.6597 32.1333C27.6411 31.7036 27.5393 31.2139 27.3418 30.7207C27.2929 30.5967 27.2383 30.4729 27.1781 30.3491C27.1474 30.289 27.1163 30.2271 27.0831 30.1652C27.0501 30.1054 27.0149 30.0452 26.9806 29.9833C26.8401 29.7414 26.6823 29.503 26.516 29.2706C26.1834 28.8053 25.8184 28.3644 25.4927 27.946C25.3295 27.7378 25.1756 27.5332 25.0379 27.3383C24.9003 27.1432 24.7771 26.9555 24.6729 26.7792C24.4625 26.4265 24.3243 26.1168 24.2394 25.8992C24.2187 25.8449 24.199 25.7961 24.1845 25.7531C24.1701 25.7099 24.158 25.6741 24.1482 25.6441C24.1384 25.6142 24.131 25.5918 24.1258 25.5766L24.1192 25.5521C24.1192 25.5521 24.1101 25.5204 24.0936 25.4603C24.0857 25.4304 24.0741 25.3945 24.064 25.3496C24.0542 25.3066 24.0432 25.2559 24.0306 25.1994C23.9867 24.9744 23.9369 24.6462 23.9804 24.2559C23.9984 24.0608 24.0439 23.8487 24.116 23.6219C24.1866 23.393 24.2843 23.1511 24.3927 22.8901C24.4469 22.7608 24.5037 22.6257 24.5593 22.4869C24.5876 22.4175 24.615 22.3462 24.6419 22.273C24.6554 22.2375 24.6687 22.2016 24.6821 22.164C24.6942 22.1285 24.7063 22.0911 24.7187 22.0535C24.7428 21.9805 24.7674 21.9052 24.7918 21.8303C24.8121 21.7553 24.8328 21.6802 24.8533 21.6052L24.8837 21.4927C24.8937 21.4551 24.9006 21.4175 24.9094 21.3781C24.9259 21.3032 24.9421 21.228 24.9586 21.1513C25.076 20.5451 25.1089 19.9392 25.0826 19.3783C25.0564 18.8192 24.9668 18.3055 24.8551 17.8758C24.782 17.5944 24.6996 17.3486 24.6237 17.1458C24.9444 16.7689 25.0613 16.2456 24.9084 15.7578C24.5783 16.118 24.1737 16.42 23.7029 16.6377C23.2323 16.8571 22.7396 16.9732 22.251 16.996Z" fill="#FEFEFE"/>
<path d="M28.5647 22.1412C27.3395 22.8205 27.7869 25.9325 28.4714 27.1502C29.1561 28.3676 30.7041 28.8029 31.929 28.1218C33.1541 27.4428 33.5923 25.9043 32.9078 24.6871C32.223 23.4697 29.7894 21.4604 28.5647 22.1412Z" fill="#FEFEFE"/>
<path d="M18.3227 26.7193C17.3056 27.284 17.6772 29.8675 18.2455 30.8784C18.8139 31.8896 20.0995 32.2498 21.1166 31.685C22.1339 31.1204 22.4976 29.8428 21.929 28.8336C21.3606 27.8223 19.34 26.1548 18.3228 26.7192L18.3227 26.7193Z" fill="#FEFEFE"/>
<path d="M56.9971 5.32422V37.2583" stroke="#FEFEFE" stroke-width="0.752715" stroke-miterlimit="22.9256"/>
</g>
<defs>
<clipPath id="clip0_9626_16605">
<rect width="240.975" height="42.818" fill="white" transform="translate(0.0927734 0.0195312)"/>
</clipPath>
</defs>
</svg>
