<svg width="104" height="108" viewBox="0 0 104 108" fill="none" xmlns="http://www.w3.org/2000/svg">
<g id="pngkey 1">
<g id="Ellipse 435" filter="url(#filter0_d_651_2163)">
<circle cx="52" cy="42" r="32" fill="#1EBEA5"/>
<circle cx="52" cy="42" r="31" stroke="white" stroke-width="2"/>
</g>
<path id="Vector" fill-rule="evenodd" clip-rule="evenodd" d="M63.3374 30.6501C61.8614 29.1715 60.1052 27.9991 58.1706 27.2009C56.236 26.4027 54.1615 25.9945 52.0672 26.0001C43.2845 26.0001 36.1368 33.1128 36.1337 41.8556C36.1299 44.6381 36.8636 47.3723 38.2606 49.7826L36 58L44.4465 55.7951C46.7824 57.0618 49.4001 57.7255 52.0603 57.7255H52.0672C60.8483 57.7255 67.9969 50.6121 67.9999 41.8693C68.0067 39.7853 67.598 37.7207 66.7977 35.7949C65.9974 33.8692 64.8213 32.1205 63.3374 30.6501ZM52.0672 55.0439H52.0618C49.6901 55.0451 47.3616 54.4114 45.3205 53.2093L44.8369 52.9242L39.8252 54.2327L41.1637 49.3667L40.8482 48.8679C39.5236 46.7671 38.8228 44.3364 38.8267 41.8563C38.8267 34.5916 44.7674 28.6779 52.0725 28.6779C53.8119 28.6789 55.534 29.0208 57.1406 29.6842C58.7472 30.3475 60.2068 31.3193 61.436 32.544C62.6652 33.7687 63.64 35.2224 64.3047 36.8221C64.9694 38.4217 65.311 40.136 65.31 41.867C65.3069 49.134 59.3662 55.0439 52.0672 55.0439ZM59.3311 45.1728C58.933 44.9744 56.9757 44.0164 56.6106 43.8803C56.2454 43.7442 55.9803 43.6818 55.7152 44.0787C55.4501 44.4756 54.6869 45.3674 54.4546 45.632C54.2224 45.8966 53.9901 45.9293 53.5921 45.7309C53.1941 45.5324 51.9113 45.1143 50.3903 43.7647C49.2069 42.714 48.4039 41.4169 48.1747 41.02C47.9455 40.6231 48.1503 40.4117 48.3497 40.211C48.5285 40.0339 48.7477 39.7487 48.9463 39.5169C49.145 39.285 49.2122 39.1207 49.3444 38.8561C49.4765 38.5916 49.4108 38.3604 49.3115 38.162C49.2122 37.9635 48.4154 36.0133 48.0838 35.2203C47.7607 34.4479 47.4329 34.552 47.1884 34.5361C46.9592 34.5247 46.6903 34.5224 46.4245 34.5224C46.2227 34.5276 46.0241 34.5744 45.8414 34.6597C45.6586 34.745 45.4956 34.867 45.3625 35.0181C44.9981 35.415 43.9698 36.373 43.9698 38.3232C43.9698 40.2734 45.3961 42.1574 45.5948 42.422C45.7934 42.6866 48.4024 46.6881 52.3942 48.4049C53.1355 48.723 53.8932 49.0022 54.6639 49.2412C55.6174 49.5453 56.4853 49.5005 57.1713 49.3986C57.9353 49.2846 59.5267 48.4399 59.859 47.5146C60.1913 46.5893 60.1906 45.7955 60.0882 45.6305C59.9858 45.4655 59.7291 45.3743 59.3311 45.1758V45.1728Z" fill="white"/>
</g>
<defs>
<filter id="filter0_d_651_2163" x="0" y="4" width="104" height="104" filterUnits="userSpaceOnUse" color-interpolation-filters="sRGB">
<feFlood flood-opacity="0" result="BackgroundImageFix"/>
<feColorMatrix in="SourceAlpha" type="matrix" values="0 0 0 0 0 0 0 0 0 0 0 0 0 0 0 0 0 0 127 0" result="hardAlpha"/>
<feOffset dy="14"/>
<feGaussianBlur stdDeviation="10"/>
<feColorMatrix type="matrix" values="0 0 0 0 0 0 0 0 0 0 0 0 0 0 0 0 0 0 0.1 0"/>
<feBlend mode="normal" in2="BackgroundImageFix" result="effect1_dropShadow_651_2163"/>
<feBlend mode="normal" in="SourceGraphic" in2="effect1_dropShadow_651_2163" result="shape"/>
</filter>
</defs>
</svg>
