<svg width="235" height="149" viewBox="0 0 235 149" fill="none" xmlns="http://www.w3.org/2000/svg">
<g id="Quote Mark" opacity="0.2" clip-path="url(#clip0_9631_5223)">
<path id="&#226;&#128;&#156;" fill-rule="evenodd" clip-rule="evenodd" d="M1.3625 125.729C36.3562 112.8 53.8527 97.6096 53.8527 80.1562C38.9374 78.8633 26.6037 74.2846 16.8514 66.4197C7.09908 58.5549 2.22301 49.4512 2.22301 39.1085C2.22301 28.1193 6.95567 18.854 16.4212 11.3124C25.8867 3.77075 37.7901 0 52.1317 0C68.1944 0 82.1056 4.90198 93.8657 14.7061C105.626 24.5102 111.506 36.415 111.506 50.4208C111.506 92.4384 80.2415 125.298 17.7119 149L1.3625 125.729ZM124.857 125.729C160.137 112.8 177.777 97.6096 177.777 80.1562C162.575 78.8633 150.098 74.2846 140.346 66.4197C130.593 58.5549 125.717 49.4512 125.717 39.1085C125.717 28.1193 130.521 18.854 140.13 11.3124C149.739 3.77075 161.714 0 176.056 0C192.119 0 205.958 4.90198 217.575 14.7061C229.192 24.5102 235 36.415 235 50.4208C235 92.4384 203.879 125.298 141.636 149L124.857 125.729Z" fill="white"/>
</g>
<defs>
<clipPath id="clip0_9631_5223">
<rect width="234.667" height="149" fill="white" transform="matrix(-1 0 0 -1 235 149)"/>
</clipPath>
</defs>
</svg>
